<svg width="360" height="64" viewBox="0 0 360 64" fill="none" xmlns="http://www.w3.org/2000/svg">
<path d="M48.5156 51.2734C47.987 51.2734 47.6953 51.0365 47.6406 50.5625C47.5859 50.0703 47.6862 49.5964 47.9414 49.1406L63.0078 21.9336C63.2995 21.4049 63.5273 21.0404 63.6914 20.8398C63.8555 20.6393 64.1016 20.5391 64.4297 20.5391C64.6849 20.5391 64.9128 20.6393 65.1133 20.8398C65.3138 21.0221 65.5599 21.3867 65.8516 21.9336L80.9453 49.168C81.1458 49.5143 81.2461 49.8698 81.2461 50.2344C81.2461 50.9271 80.9362 51.2734 80.3164 51.2734C80.0794 51.2734 79.8333 51.1823 79.5781 51C79.3229 50.8359 79.0677 50.526 78.8125 50.0703L74.1641 41.6484H54.6953L49.9922 50.1797C49.6094 50.9089 49.1172 51.2734 48.5156 51.2734ZM55.4883 40.0352H73.3711L64.4297 23.7109L55.4883 40.0352ZM103.695 51.5742C97.7344 51.5742 93.2682 50.3529 90.2969 47.9102C87.3255 45.4674 85.8398 41.3932 85.8398 35.6875V22.4531C85.8398 21.9792 85.9128 21.5417 86.0586 21.1406C86.2044 20.7396 86.5417 20.5391 87.0703 20.5391C87.526 20.5391 87.8177 20.7396 87.9453 21.1406C88.0911 21.5417 88.1641 21.9792 88.1641 22.4531V35.6875C88.1641 38.8594 88.6289 41.4935 89.5586 43.5898C90.4883 45.668 92.0833 47.2174 94.3438 48.2383C96.6042 49.2591 99.7214 49.7695 103.695 49.7695C107.669 49.7695 110.777 49.2591 113.02 48.2383C115.28 47.2174 116.866 45.668 117.777 43.5898C118.707 41.4935 119.172 38.8594 119.172 35.6875V22.4531C119.172 21.9792 119.245 21.5417 119.391 21.1406C119.536 20.7396 119.837 20.5391 120.293 20.5391C120.822 20.5391 121.15 20.7396 121.277 21.1406C121.423 21.5417 121.496 21.9792 121.496 22.4531V35.6875C121.496 41.3932 120.02 45.4674 117.066 47.9102C114.113 50.3529 109.656 51.5742 103.695 51.5742ZM131.039 51C130.51 51 130.164 50.7995 130 50.3984C129.836 49.9792 129.754 49.487 129.754 48.9219V21.5508C129.754 21.0221 129.79 20.7214 129.863 20.6484C129.936 20.5755 130.237 20.5391 130.766 20.5391H138.695C141.247 20.5391 143.599 20.612 145.75 20.7578C147.919 20.8854 149.815 21.2409 151.438 21.8242C153.06 22.3893 154.318 23.319 155.211 24.6133C156.104 25.8893 156.551 27.6849 156.551 30C156.551 31.6589 156.204 33.0352 155.512 34.1289C154.819 35.2044 153.898 36.0521 152.75 36.6719C151.62 37.2917 150.371 37.7474 149.004 38.0391C147.655 38.3125 146.315 38.4766 144.984 38.5312L155.047 49.1133C155.357 49.4232 155.512 49.7513 155.512 50.0977C155.512 50.6992 155.202 51 154.582 51C154.4 51 154.19 50.9544 153.953 50.8633C153.716 50.7539 153.488 50.5807 153.27 50.3438L142.305 38.6406H132.078V48.9219C132.078 49.4505 132.014 49.9336 131.887 50.3711C131.759 50.7904 131.477 51 131.039 51ZM132.078 36.8359H142.332C144.447 36.8359 146.406 36.6901 148.211 36.3984C150.016 36.0885 151.465 35.4505 152.559 34.4844C153.671 33.5 154.227 32.0052 154.227 30C154.227 27.5755 153.634 25.8346 152.449 24.7773C151.264 23.7018 149.514 23.0273 147.199 22.7539C144.902 22.4805 142.068 22.3438 138.695 22.3438H132.078V36.8359ZM182.527 51.5742C175.6 51.5742 170.523 50.2708 167.297 47.6641C164.07 45.0573 162.457 41.0924 162.457 35.7695C162.457 30.4466 164.07 26.4818 167.297 23.875C170.523 21.2682 175.6 19.9648 182.527 19.9648C189.454 19.9648 194.531 21.2682 197.758 23.875C201.003 26.4818 202.625 30.4466 202.625 35.7695C202.625 41.0924 201.003 45.0573 197.758 47.6641C194.531 50.2708 189.454 51.5742 182.527 51.5742ZM182.527 49.7695C188.507 49.7695 192.964 48.7122 195.898 46.5977C198.833 44.4648 200.301 40.8555 200.301 35.7695C200.301 30.6836 198.833 27.0833 195.898 24.9688C192.964 22.8359 188.507 21.7695 182.527 21.7695C176.548 21.7695 172.091 22.8359 169.156 24.9688C166.24 27.0833 164.781 30.6836 164.781 35.7695C164.781 40.8555 166.24 44.4648 169.156 46.5977C172.091 48.7122 176.548 49.7695 182.527 49.7695ZM211.703 51C211.174 51 210.828 50.7995 210.664 50.3984C210.5 49.9792 210.418 49.487 210.418 48.9219V21.5508C210.418 21.0221 210.454 20.7214 210.527 20.6484C210.6 20.5755 210.901 20.5391 211.43 20.5391H219.359C221.911 20.5391 224.263 20.612 226.414 20.7578C228.583 20.8854 230.479 21.2409 232.102 21.8242C233.724 22.3893 234.982 23.319 235.875 24.6133C236.768 25.8893 237.215 27.6849 237.215 30C237.215 31.6589 236.868 33.0352 236.176 34.1289C235.483 35.2044 234.562 36.0521 233.414 36.6719C232.284 37.2917 231.035 37.7474 229.668 38.0391C228.319 38.3125 226.979 38.4766 225.648 38.5312L235.711 49.1133C236.021 49.4232 236.176 49.7513 236.176 50.0977C236.176 50.6992 235.866 51 235.246 51C235.064 51 234.854 50.9544 234.617 50.8633C234.38 50.7539 234.152 50.5807 233.934 50.3438L222.969 38.6406H212.742V48.9219C212.742 49.4505 212.678 49.9336 212.551 50.3711C212.423 50.7904 212.141 51 211.703 51ZM212.742 36.8359H222.996C225.111 36.8359 227.07 36.6901 228.875 36.3984C230.68 36.0885 232.129 35.4505 233.223 34.4844C234.335 33.5 234.891 32.0052 234.891 30C234.891 27.5755 234.298 25.8346 233.113 24.7773C231.928 23.7018 230.178 23.0273 227.863 22.7539C225.566 22.4805 222.732 22.3438 219.359 22.3438H212.742V36.8359ZM242.984 51C242.547 51 242.1 50.9727 241.645 50.918C241.207 50.8633 240.988 50.5716 240.988 50.043C240.988 49.5872 241.198 49.332 241.617 49.2773C242.055 49.2227 242.51 49.1953 242.984 49.1953H252.746V22.3438H242.984C242.51 22.3438 242.055 22.3164 241.617 22.2617C241.198 22.207 240.988 21.9518 240.988 21.4961C240.988 20.9674 241.207 20.6758 241.645 20.6211C242.1 20.5664 242.547 20.5391 242.984 20.5391H264.832C265.361 20.5391 265.816 20.5664 266.199 20.6211C266.6 20.6758 266.801 20.9492 266.801 21.4414C266.801 21.9336 266.6 22.207 266.199 22.2617C265.816 22.3164 265.361 22.3438 264.832 22.3438H255.07V49.1953H264.832C265.361 49.1953 265.816 49.2227 266.199 49.2773C266.6 49.332 266.801 49.6055 266.801 50.0977C266.801 50.5898 266.6 50.8633 266.199 50.918C265.816 50.9727 265.361 51 264.832 51H242.984ZM286.461 51C285.987 51 285.668 50.7995 285.504 50.3984C285.358 49.9792 285.285 49.5052 285.285 48.9766V22.3438H270.547C270.036 22.3438 269.572 22.3255 269.152 22.2891C268.733 22.2526 268.523 22.0065 268.523 21.5508C268.523 21.0221 268.742 20.7214 269.18 20.6484C269.635 20.5755 270.091 20.5391 270.547 20.5391H302.293C302.822 20.5391 303.277 20.5755 303.66 20.6484C304.061 20.7214 304.262 21.0221 304.262 21.5508C304.262 22.0065 304.061 22.2526 303.66 22.2891C303.277 22.3255 302.822 22.3438 302.293 22.3438H287.609V48.9766C287.609 49.5052 287.546 49.9792 287.418 50.3984C287.309 50.7995 286.99 51 286.461 51ZM309.895 51C309.548 51 309.339 50.9453 309.266 50.8359C309.211 50.7266 309.184 50.4622 309.184 50.043V21.8242C309.184 21.2956 309.22 20.9492 309.293 20.7852C309.366 20.6211 309.667 20.5391 310.195 20.5391H335.16C335.689 20.5391 336.154 20.5664 336.555 20.6211C336.974 20.6758 337.184 20.9674 337.184 21.4961C337.184 21.9518 336.974 22.207 336.555 22.2617C336.154 22.3164 335.689 22.3438 335.16 22.3438H311.508V34.3203H335.023C335.424 34.3203 335.762 34.375 336.035 34.4844C336.309 34.5938 336.445 34.8307 336.445 35.1953C336.445 35.5964 336.327 35.8607 336.09 35.9883C335.871 36.1159 335.579 36.1797 335.215 36.1797H311.508V49.1953H335.215C335.743 49.1953 336.208 49.2227 336.609 49.2773C337.029 49.332 337.238 49.5872 337.238 50.043C337.238 50.5716 337.065 50.8633 336.719 50.918C336.391 50.9544 335.962 50.9818 335.434 51H309.895Z" fill="#F9FAFB"/>
<path d="M37.5566 30.4424C38.1369 29.8472 39.148 30.1854 39.2529 31.0098L40.707 42.4326C40.7388 42.6822 40.6746 42.9347 40.5273 43.1387L35.1504 50.5879C34.8055 51.0657 34.1221 51.1397 33.6826 50.7471L25.9453 43.8359C25.5238 43.4595 25.5011 42.808 25.8955 42.4033L37.5566 30.4424ZM28.0625 43.0459L34.1816 48.5107L38.6719 42.29L37.5322 33.3311L28.0625 43.0459ZM30.832 16.0713C31.1544 15.9418 31.521 15.9907 31.7988 16.1992L37.6211 20.5674C37.8357 20.7285 37.9759 20.9702 38.0097 21.2363L38.6738 26.459C38.7118 26.7572 38.613 27.057 38.4043 27.2734L24.917 41.2539C24.3838 41.8065 23.4514 41.5705 23.2451 40.8311L18.0371 22.167C17.9013 21.6799 18.1536 21.1692 18.623 20.9805L30.832 16.0713ZM20.2051 22.499L24.6982 38.5986L36.6289 26.2324L36.0791 21.9111L31.0517 18.1387L20.2051 22.499ZM40.1123 23.3125C39.9954 22.3914 41.0947 21.8287 41.7744 22.4619L44.3017 24.8164C44.4046 24.9123 44.4866 25.0286 44.541 25.1582L46.9228 30.8359C47.0334 31.0995 47.0247 31.3984 46.8994 31.6553L43.8164 37.9727L43.7256 38.126C43.2238 38.8292 42.0552 38.5803 41.9385 37.6631L40.1123 23.3125ZM43.4961 34.0674L44.9014 31.1885L42.7793 26.1309L42.4463 25.8213L43.4961 34.0674Z" fill="url(#paint0_linear_1_227)"/>
<defs>
<linearGradient id="paint0_linear_1_227" x1="19.3814" y1="21.645" x2="36.8036" y2="54.2358" gradientUnits="userSpaceOnUse">
<stop stop-color="#C273FF"/>
<stop offset="0.495192" stop-color="#6DFFAF"/>
<stop offset="1" stop-color="#66A8FF"/>
</linearGradient>
</defs>
</svg>
