<svg width="48" height="48" viewBox="0 0 48 48" fill="none" xmlns="http://www.w3.org/2000/svg">
<path d="M29.5561 21.4425C30.1364 20.8473 31.1475 21.1855 31.2524 22.0099L32.7065 33.4327C32.7383 33.6823 32.6741 33.9348 32.5268 34.1388L27.1499 41.588C26.805 42.0658 26.1217 42.1398 25.6821 41.7472L17.9448 34.8361C17.5234 34.4596 17.5006 33.8081 17.895 33.4034L29.5561 21.4425ZM20.062 34.046L26.1811 39.5109L30.6714 33.2902L29.5317 24.3312L20.062 34.046ZM22.8315 7.0714C23.1539 6.94193 23.5205 6.99085 23.7983 7.19933L29.6206 11.5675C29.8352 11.7286 29.9754 11.9703 30.0093 12.2364L30.6733 17.4591C30.7113 17.7573 30.6125 18.0571 30.4038 18.2736L16.9165 32.254C16.3833 32.8066 15.451 32.5706 15.2446 31.8312L10.0366 13.1671C9.90083 12.68 10.1531 12.1693 10.6225 11.9806L22.8315 7.0714ZM12.2046 13.4991L16.6977 29.5987L28.6284 17.2325L28.0786 12.9112L23.0513 9.13878L12.2046 13.4991ZM32.1118 14.3126C31.9949 13.3915 33.0942 12.8288 33.7739 13.462L36.3013 15.8165C36.4041 15.9124 36.4861 16.0287 36.5405 16.1583L38.9223 21.8361C39.0329 22.0996 39.0243 22.3985 38.8989 22.6554L35.8159 28.9728L35.7251 29.1261C35.2233 29.8293 34.0547 29.5804 33.938 28.6632L32.1118 14.3126ZM35.4956 25.0675L36.9009 22.1886L34.7788 17.131L34.4458 16.8214L35.4956 25.0675Z" fill="url(#paint0_linear_46_4)"/>
<defs>
<linearGradient id="paint0_linear_46_4" x1="11.3809" y1="12.6451" x2="28.8031" y2="45.2359" gradientUnits="userSpaceOnUse">
<stop stop-color="#C273FF"/>
<stop offset="0.495192" stop-color="#6DFFAF"/>
<stop offset="1" stop-color="#66A8FF"/>
</linearGradient>
</defs>
</svg>
